<svg width="24" height="24" viewBox="0 0 24 24" fill="none" xmlns="http://www.w3.org/2000/svg">
<rect opacity="0.01" x="24" y="24" width="24" height="24" transform="rotate(180 24 24)" fill="black"/>
<path d="M3.24005 7.29L11.7601 11.92C11.9101 12 12.0901 12 12.2401 11.92L20.7601 7.29C20.919 7.21151 21.0153 7.04531 21.0044 6.86837C20.9935 6.69144 20.8774 6.53835 20.7101 6.48L12.1901 3C12.0683 2.94999 11.9318 2.94999 11.8101 3L3.29005 6.48C3.12266 6.53835 3.00663 6.69144 2.99571 6.86837C2.98479 7.04531 3.08111 7.21151 3.24005 7.29Z" fill="black"/>
<path d="M20.71 10.66L18.88 9.88L12.24 13.49C12.09 13.57 11.91 13.57 11.76 13.49L5.11998 9.88L3.28998 10.66C3.13202 10.7429 3.03308 10.9066 3.03308 11.085C3.03308 11.2634 3.13202 11.4271 3.28998 11.51L11.81 16.41C11.9573 16.5001 12.1427 16.5001 12.29 16.41L20.81 11.51C20.9604 11.4099 21.0419 11.2338 21.0208 11.0543C20.9996 10.8749 20.8795 10.7225 20.71 10.66Z" fill="black"/>
<path d="M20.71 15.1L19.15 14.42L12.24 18.18C12.09 18.26 11.91 18.26 11.76 18.18L4.84996 14.42L3.28996 15.1C3.12749 15.1842 3.02551 15.352 3.02551 15.535C3.02551 15.718 3.12749 15.8858 3.28996 15.97L11.81 20.97C11.96 21.05 12.14 21.05 12.29 20.97L20.81 15.97C20.9649 15.8685 21.0494 15.6882 21.0282 15.5042C21.0071 15.3201 20.8839 15.1637 20.71 15.1Z" fill="black"/>
</svg>
