<svg width="24" height="24" viewBox="0 0 24 24" fill="none" xmlns="http://www.w3.org/2000/svg">
<rect opacity="0.01" width="24" height="24" fill="black"/>
<path fill-rule="evenodd" clip-rule="evenodd" d="M21.17 10.33H14.5C14.0416 10.33 13.67 9.9584 13.67 9.5V2.83C13.67 2.3716 14.0416 2 14.5 2C18.6422 2 22 5.35786 22 9.5C22 9.9584 21.6284 10.33 21.17 10.33ZM20.27 8.67C19.9016 6.1098 17.8902 4.09848 15.33 3.73V8.67H20.27Z" fill="black"/>
<path d="M21.08 12H12.93C12.6886 12 12.4572 11.9041 12.2865 11.7335C12.1159 11.5628 12.02 11.3313 12.02 11.09V2.91999C12.0215 2.65764 11.911 2.4071 11.7162 2.23138C11.5214 2.05566 11.2608 1.97147 11 1.99999C5.77993 2.55428 1.87703 7.05051 2.0621 12.2966C2.24717 17.5428 6.4572 21.7528 11.7033 21.9379C16.9495 22.1229 21.4457 18.22 22 13C22.0225 12.7425 21.9356 12.4873 21.7605 12.2971C21.5855 12.1068 21.3385 11.999 21.08 12Z" fill="black"/>
</svg>
