<svg width="24" height="24" viewBox="0 0 24 24" fill="none" xmlns="http://www.w3.org/2000/svg">
<rect opacity="0.01" width="24" height="24" fill="black"/>
<path fill-rule="evenodd" clip-rule="evenodd" d="M6.37742 3.69214C10.3567 1.00347 15.6853 1.52315 19.07 4.93001L19.12 4.95001C22.5269 8.33477 23.0466 13.6634 20.3579 17.6426C17.6692 21.6219 12.5315 23.1279 8.12004 21.23C7.91816 21.1449 7.69757 21.1139 7.48004 21.14L3.20004 22H3.00004C2.72733 22.007 2.46363 21.9022 2.27004 21.71C2.03263 21.4714 1.93117 21.1294 2.00004 20.8L2.88004 16.57C2.91739 16.3525 2.88593 16.1288 2.79004 15.93C0.892129 11.5185 2.39819 6.38081 6.37742 3.69214ZM7.00004 12C7.00004 12.5523 7.44775 13 8.00004 13C8.55232 13 9.00004 12.5523 9.00004 12C9.00004 11.4477 8.55232 11 8.00004 11C7.44775 11 7.00004 11.4477 7.00004 12ZM12 13C11.4478 13 11 12.5523 11 12C11 11.4477 11.4478 11 12 11C12.5523 11 13 11.4477 13 12C13 12.5523 12.5523 13 12 13ZM15 12C15 12.5523 15.4478 13 16 13C16.5523 13 17 12.5523 17 12C17 11.4477 16.5523 11 16 11C15.4478 11 15 11.4477 15 12Z" fill="black"/>
</svg>
