<svg width="200" height="140" viewBox="0 0 200 140" fill="none" xmlns="http://www.w3.org/2000/svg">
<path d="M99 28.0617C99 25.9538 100.709 24.2449 102.817 24.2449C104.925 24.2449 106.634 25.9538 106.634 28.0617V69.9045H99V28.0617Z" fill="#FFE5F0"/>
<rect x="99" y="69.9045" width="7.63359" height="29.2025" fill="#FFBDD8"/>
<path fill-rule="evenodd" clip-rule="evenodd" d="M99 99.107H106.634V128.31H99V99.107Z" fill="#FF84B7"/>
<path fill-rule="evenodd" clip-rule="evenodd" d="M99 128.31L106.634 128.31V135.797C106.634 137.905 104.925 139.614 102.817 139.614C100.709 139.614 99 137.905 99 135.797V128.31Z" fill="#FF5DA0"/>
<path d="M192 4.82627C192 2.71832 193.709 1.00948 195.817 1.00948C197.925 1.00948 199.634 2.71831 199.634 4.82627V74.2327H192V4.82627Z" fill="#FFE5F0"/>
<rect x="192" y="74.2327" width="7.63359" height="29.3689" fill="#FFBDD8"/>
<path fill-rule="evenodd" clip-rule="evenodd" d="M192 103.602H199.634V121.602H192V103.602Z" fill="#FF84B7"/>
<path d="M192 121.602H199.634V135.785C199.634 137.893 197.925 139.602 195.817 139.602C193.709 139.602 192 137.893 192 135.785V121.602Z" fill="#FF5DA0"/>
<path d="M32 59.3152C32 57.2072 33.7088 55.4984 35.8168 55.4984C37.9248 55.4984 39.6336 57.2072 39.6336 59.3152V80.1361H32V59.3152Z" fill="#FFE5F0"/>
<rect x="32" y="80.1361" width="7.63359" height="14.1055" fill="#FFBDD8"/>
<rect x="32" y="94.2416" width="7.63359" height="17.867" fill="#FF84B7"/>
<path fill-rule="evenodd" clip-rule="evenodd" d="M32 112.109H39.6336V135.563C39.6336 137.671 37.9248 139.379 35.8168 139.379C33.7088 139.379 32 137.671 32 135.563V112.109Z" fill="#FF5DA0"/>
<path d="M164 17.6357C164 15.5277 165.709 13.8189 167.817 13.8189C169.925 13.8189 171.634 15.5277 171.634 17.6357V71.7703H164V17.6357Z" fill="#FFE5F0"/>
<rect x="164" y="71.7703" width="7.63359" height="24.4719" fill="#FFBDD8"/>
<rect x="164" y="96.2423" width="7.63359" height="14.1184" fill="#FF84B7"/>
<path fill-rule="evenodd" clip-rule="evenodd" d="M164 110.361H171.634V135.722C171.634 137.83 169.925 139.539 167.817 139.539C165.709 139.539 164 137.83 164 135.722V110.361Z" fill="#FF5DA0"/>
<path d="M131 39.3166C131 37.2086 132.709 35.4998 134.817 35.4998C136.925 35.4998 138.634 37.2086 138.634 39.3166V66.3821H131V39.3166Z" fill="#FFE5F0"/>
<rect x="131" y="66.3821" width="7.63359" height="29.2322" fill="#FFBDD8"/>
<path fill-rule="evenodd" clip-rule="evenodd" d="M131 95.6143H138.634V124.846H131V95.6143Z" fill="#FF84B7"/>
<path d="M131 124.846H138.634V136.117C138.634 138.225 136.925 139.934 134.817 139.934C132.709 139.934 131 138.225 131 136.117V124.846Z" fill="#FF5DA0"/>
<path d="M0 4.31805C0 2.21009 1.70884 0.501251 3.81679 0.501251C5.92475 0.501251 7.63359 2.21009 7.63359 4.31805V62.4482H0V4.31805Z" fill="#FFE5F0"/>
<rect y="62.4482" width="7.63359" height="29.3184" fill="#FFBDD8"/>
<rect y="91.7665" width="7.63359" height="29.3184" fill="#FF84B7"/>
<path d="M0 121.085H7.63359V135.237C7.63359 137.345 5.92475 139.054 3.81679 139.054C1.70884 139.054 0 137.345 0 135.237V121.085Z" fill="#FF5DA0"/>
<path d="M65 32.5088C65 30.4008 66.7088 28.692 68.8168 28.692C70.9248 28.692 72.6336 30.4008 72.6336 32.5088V78.3623H65V32.5088Z" fill="#FFE5F0"/>
<path fill-rule="evenodd" clip-rule="evenodd" d="M65 78.3623H72.6336V92.5809H65V78.3623Z" fill="#FFBDD8"/>
<rect x="65" y="92.5809" width="7.63359" height="14.2186" fill="#FF84B7"/>
<path fill-rule="evenodd" clip-rule="evenodd" d="M65 106.8H72.6336V136.159C72.6336 138.267 70.9248 139.976 68.8168 139.976C66.7088 139.976 65 138.267 65 136.159V106.8Z" fill="#FF5DA0"/>
</svg>
