<svg width="226" height="164" viewBox="0 0 226 164" fill="none" xmlns="http://www.w3.org/2000/svg">
<path d="M102 85C102 82.7909 103.791 81 106 81C108.209 81 110 82.7909 110 85V164H102V85Z" fill="#4049FF"/>
<path fill-rule="evenodd" clip-rule="evenodd" d="M115.453 71C115.453 68.7909 117.244 67 119.453 67C121.662 67 123.453 68.7909 123.453 71V164H115.453V71Z" fill="#FF9000"/>
<path fill-rule="evenodd" clip-rule="evenodd" d="M204 80C204 77.7909 205.791 76 208 76C210.209 76 212 77.7909 212 80V164H204V80Z" fill="#4049FF"/>
<path d="M217.453 63C217.453 60.7909 219.244 59 221.453 59C223.662 59 225.453 60.7909 225.453 63V164H217.453V63Z" fill="#FF9000"/>
<path fill-rule="evenodd" clip-rule="evenodd" d="M170 102C170 99.7909 171.791 98 174 98C176.209 98 178 99.7909 178 102V164H170V102Z" fill="#4049FF"/>
<path d="M183.453 88C183.453 85.7909 185.244 84 187.453 84C189.662 84 191.453 85.7909 191.453 88V164H183.453V88Z" fill="#FF9000"/>
<path d="M34 66C34 63.7909 35.7909 62 38 62C40.2091 62 42 63.7909 42 66V164H34V66Z" fill="#4049FF"/>
<path fill-rule="evenodd" clip-rule="evenodd" d="M47.4531 47C47.4531 44.7909 49.244 43 51.4531 43C53.6623 43 55.4531 44.7909 55.4531 47V164H47.4531V47Z" fill="#FF9000"/>
<path d="M136 30C136 27.7909 137.791 26 140 26C142.209 26 144 27.7909 144 30V164H136V30Z" fill="#4049FF"/>
<path fill-rule="evenodd" clip-rule="evenodd" d="M149.453 4C149.453 1.79086 151.244 0 153.453 0C155.662 0 157.453 1.79086 157.453 4V164H149.453V4Z" fill="#FF9000"/>
<path fill-rule="evenodd" clip-rule="evenodd" d="M0 111C0 108.791 1.79086 107 4 107C6.20914 107 8 108.791 8 111V164H0V111Z" fill="#4049FF"/>
<path d="M13.4531 84C13.4531 81.7909 15.244 80 17.4531 80C19.6623 80 21.4531 81.7909 21.4531 84V164H13.4531V84Z" fill="#FF9000"/>
<path fill-rule="evenodd" clip-rule="evenodd" d="M68 84C68 81.7909 69.7909 80 72 80C74.2091 80 76 81.7909 76 84V164H68V84Z" fill="#4049FF"/>
<path fill-rule="evenodd" clip-rule="evenodd" d="M81.4531 57C81.4531 54.7909 83.244 53 85.4531 53C87.6623 53 89.4531 54.7909 89.4531 57V164H81.4531V57Z" fill="#FF9000"/>
</svg>
