<svg width="200" height="148" viewBox="0 0 200 148" fill="none" xmlns="http://www.w3.org/2000/svg">
<path fill-rule="evenodd" clip-rule="evenodd" d="M191.516 69.697C191.516 67.3539 193.415 65.4545 195.758 65.4545C198.101 65.4545 200 67.3539 200 69.697V147.879H191.516V69.697Z" fill="#5286F8"/>
<path fill-rule="evenodd" clip-rule="evenodd" d="M163.637 85.4545C163.637 83.1115 165.536 81.2121 167.879 81.2121C170.222 81.2121 172.122 83.1115 172.122 85.4546V147.879H163.637V85.4545Z" fill="#5286F8"/>
<path fill-rule="evenodd" clip-rule="evenodd" d="M130.91 55.1515C130.91 52.8085 132.81 50.9091 135.153 50.9091C137.496 50.9091 139.395 52.8085 139.395 55.1515V147.879H130.91V55.1515Z" fill="#5286F8"/>
<path fill-rule="evenodd" clip-rule="evenodd" d="M98.1836 29.697C98.1836 27.3539 100.083 25.4545 102.426 25.4545C104.769 25.4545 106.668 27.3539 106.668 29.697V147.879H98.1836V29.697Z" fill="#5286F8"/>
<path fill-rule="evenodd" clip-rule="evenodd" d="M65.4531 95.1515C65.4531 92.8085 67.3525 90.9091 69.6955 90.9091C72.0386 90.9091 73.938 92.8085 73.938 95.1515V147.879H65.4531V95.1515Z" fill="#5286F8"/>
<path fill-rule="evenodd" clip-rule="evenodd" d="M32.7266 74.5455C32.7266 72.2024 34.626 70.303 36.969 70.303C39.312 70.303 41.2114 72.2024 41.2114 74.5455V147.879H32.7266V74.5455Z" fill="#5286F8"/>
<path fill-rule="evenodd" clip-rule="evenodd" d="M0 4.24243C0 1.8994 1.8994 0 4.24242 0C6.58545 0 8.48485 1.8994 8.48485 4.24242V147.879H0V4.24243Z" fill="#5286F8"/>
</svg>
