<svg width="157" height="82" viewBox="0 0 157 82" fill="none" xmlns="http://www.w3.org/2000/svg">
<path fill-rule="evenodd" clip-rule="evenodd" d="M156 78.5C156 121.302 121.302 156 78.5 156C35.6979 156 1 121.302 1 78.5C1 35.6979 35.6979 1 78.5 1C121.302 1 156 35.6979 156 78.5ZM127.583 78.5C127.583 105.608 105.608 127.583 78.5 127.583C51.392 127.583 29.4167 105.608 29.4167 78.5C29.4167 51.392 51.392 29.4167 78.5 29.4167C105.608 29.4167 127.583 51.392 127.583 78.5Z" fill="#E1E4E8"/>
<mask id="mask0_0_32461" style="mask-type:luminance" maskUnits="userSpaceOnUse" x="1" y="1" width="155" height="155">
<path fill-rule="evenodd" clip-rule="evenodd" d="M156 78.5C156 121.302 121.302 156 78.5 156C35.6979 156 1 121.302 1 78.5C1 35.6979 35.6979 1 78.5 1C121.302 1 156 35.6979 156 78.5ZM127.583 78.5C127.583 105.608 105.608 127.583 78.5 127.583C51.392 127.583 29.4167 105.608 29.4167 78.5C29.4167 51.392 51.392 29.4167 78.5 29.4167C105.608 29.4167 127.583 51.392 127.583 78.5Z" fill="white"/>
</mask>
<g mask="url(#mask0_0_32461)">
<mask id="mask1_0_32461" style="mask-type:luminance" maskUnits="userSpaceOnUse" x="51" y="-11" width="116" height="182">
<path fill-rule="evenodd" clip-rule="evenodd" d="M78.5437 -10.7685L78.5008 78.5L51.6953 170.193C51.6953 170.193 138.009 153.001 157.879 122.292C177.749 91.5836 157.879 9.29442 157.879 9.29442L78.5437 -10.7685Z" fill="white"/>
</mask>
<g mask="url(#mask1_0_32461)">
<rect x="0.519531" y="1.23148" width="155" height="155" fill="#1CCAB8"/>
</g>
<path opacity="0.3" fill-rule="evenodd" clip-rule="evenodd" d="M78.5 132.75C108.461 132.75 132.75 108.461 132.75 78.5C132.75 48.5386 108.461 24.25 78.5 24.25C48.5386 24.25 24.25 48.5386 24.25 78.5C24.25 108.461 48.5386 132.75 78.5 132.75Z" fill="white"/>
</g>
</svg>
